<svg id="Layer_1" data-name="Layer 1" xmlns="http://www.w3.org/2000/svg" viewBox="0 0 433.8 514.68"><defs><style>.cls-1{fill:#ff6577;}</style></defs><title>Abitai_Small</title><path class="cls-1" d="M529.55,280.42,506,260a12.84,12.84,0,0,1-4.42-9.69v-75a11.55,11.55,0,0,0-11.55-11.55H446.43a11.55,11.55,0,0,0-11.55,11.55h0v22.6a2.57,2.57,0,0,1-4.25,2l-50.89-44.39a69.67,69.67,0,0,0-90.62-.8L138.35,281.5a61.07,61.07,0,0,0-21.76,46.74V499.38a58.4,58.4,0,0,0,58.4,58.4H193.6a6.41,6.41,0,0,1,6.41,6.4h0V640a13,13,0,0,0,21.08,10.2l108-85.55A25.63,25.63,0,0,1,345,559.09H487.5a62.89,62.89,0,0,0,62.89-62.89V326.13A60.54,60.54,0,0,0,529.55,280.42ZM501.62,494.89A14.13,14.13,0,0,1,487.5,509h-148A51.6,51.6,0,0,0,308,519.67l-53.71,41.26a2.62,2.62,0,0,1-3.64-.58,2.58,2.58,0,0,1-.49-1.52l.71-31.46a19.21,19.21,0,0,0-18.77-19.64H182a14.12,14.12,0,0,1-14.12-14.12h0v-162a26.62,26.62,0,0,1,9.63-20.48L317,195.47a25.66,25.66,0,0,1,33,.17L492.21,316.22a26.61,26.61,0,0,1,9.41,20.31Z" transform="translate(-116.59 -138.32)"/><circle class="cls-1" cx="139.25" cy="254.53" r="22.46"/><circle class="cls-1" cx="217.55" cy="254.53" r="22.46"/><circle class="cls-1" cx="295.83" cy="254.53" r="22.46"/></svg>