<svg id="Layer_1" data-name="Layer 1" xmlns="http://www.w3.org/2000/svg" viewBox="0 0 666.98 791.32"><defs><style>.cls-1{fill:#f84c5f;}</style></defs><title>Untitled-2</title><path class="cls-1" d="M700.87,222.16l-36.14-31.39a19.72,19.72,0,0,1-6.8-14.9V60.55a17.76,17.76,0,0,0-17.76-17.76H573.08a17.76,17.76,0,0,0-17.76,17.76V95.29a3.94,3.94,0,0,1-6.54,3L470.54,30.05a107.11,107.11,0,0,0-139.33-1.23L99.4,223.82a93.9,93.9,0,0,0-33.46,71.86V558.81a89.79,89.79,0,0,0,89.79,89.79h28.61a9.85,9.85,0,0,1,9.86,9.86V775a20,20,0,0,0,32.42,15.68l166-131.53a39.44,39.44,0,0,1,24.51-8.54H636.23a96.69,96.69,0,0,0,96.69-96.69V292.43A93.06,93.06,0,0,0,700.87,222.16ZM657.93,551.91a21.71,21.71,0,0,1-21.7,21.7H408.64A79.35,79.35,0,0,0,360.28,590l-82.58,63.4a4,4,0,0,1-6.35-3.22l1.1-48.37a29.54,29.54,0,0,0-29.53-30.21H166.58a21.71,21.71,0,0,1-21.71-21.71V300.79a40.93,40.93,0,0,1,14.8-31.5L374,91.54a39.46,39.46,0,0,1,50.71.27L643.46,277.2a40.9,40.9,0,0,1,14.47,31.22Z" transform="translate(-65.94 -3.68)"/><circle class="cls-1" cx="214.1" cy="391.35" r="34.53"/><circle class="cls-1" cx="334.48" cy="391.35" r="34.53"/><circle class="cls-1" cx="454.85" cy="391.35" r="34.53"/></svg>